<svg width="82" height="82" viewBox="0 0 82 82" fill="none" xmlns="http://www.w3.org/2000/svg">
<path d="M54 0.15625H28C12.536 0.15625 0 12.6371 0 28.033V53.9186C0 69.3145 12.536 81.7954 28 81.7954H54C69.464 81.7954 82 69.3145 82 53.9186V28.033C82 12.6371 69.464 0.15625 54 0.15625Z" fill="#E4FFEE"/>
<path d="M39.866 59.8922C39.3244 59.8931 38.8002 59.7024 38.3868 59.3541C37.9734 59.0058 37.6977 58.5226 37.609 57.9907L37.176 55.4021C36.3333 55.1441 35.5156 54.8108 34.733 54.4065L32.561 55.9446C32.1766 56.2217 31.7137 56.3703 31.239 56.3688C30.9386 56.369 30.641 56.31 30.3636 56.195C30.0862 56.0799 29.8345 55.9114 29.623 55.6989L27.323 53.4089C26.9388 53.029 26.703 52.5254 26.6578 51.9882C26.6125 51.451 26.7608 50.9151 27.076 50.4768L28.599 48.3682C28.1668 47.5698 27.8125 46.7321 27.541 45.8663L24.913 45.4213C24.3769 45.3332 23.8899 45.0577 23.5393 44.6444C23.1887 44.2312 22.9975 43.7071 23 43.1661V39.9275C22.9989 39.3883 23.1904 38.8662 23.5403 38.4545C23.8902 38.0429 24.3757 37.7685 24.91 37.6804L27.476 37.2494C27.7376 36.3798 28.0818 35.537 28.504 34.7324L26.959 32.5699C26.6452 32.1311 26.4977 31.5958 26.5429 31.059C26.5882 30.5222 26.8231 30.0187 27.206 29.638L29.517 27.3481C29.899 26.9663 30.4048 26.732 30.9442 26.687C31.4836 26.6419 32.0215 26.789 32.462 27.1021L34.588 28.6264C35.3894 28.1954 36.2306 27.8425 37.1 27.5722L37.548 24.9556C37.6368 24.4247 37.9118 23.9424 38.3242 23.5944C38.7365 23.2464 39.2594 23.0553 39.8 23.0551H43.054C43.5954 23.0541 44.1196 23.2446 44.533 23.5927C44.9464 23.9408 45.2221 24.4239 45.311 24.9556L45.743 27.5105C46.647 27.7816 47.5221 28.14 48.356 28.5807L50.505 27.0574C50.8892 26.7803 51.3517 26.6318 51.826 26.6332C52.1264 26.6328 52.424 26.6917 52.7013 26.8065C52.9787 26.9214 53.2305 27.09 53.442 27.3024L55.742 29.5921C56.1265 29.9721 56.3624 30.4761 56.4077 31.0135C56.453 31.551 56.3046 32.0868 55.989 32.5252L54.459 34.6569C54.8843 35.4587 55.2335 36.2984 55.502 37.1648L58.102 37.6038C58.6357 37.6901 59.1204 37.9643 59.468 38.3765C59.8157 38.7887 60.003 39.3115 59.996 39.8497V43.0896C59.997 43.6286 59.8055 44.1505 59.4559 44.562C59.1062 44.9736 58.6211 45.248 58.087 45.3365L55.487 45.7677C55.2188 46.6345 54.8696 47.4745 54.444 48.2766L55.974 50.4151C56.2879 50.8539 56.4353 51.3894 56.3901 51.9262C56.3449 52.4631 56.1099 52.9666 55.727 53.3472L53.427 55.6371C53.045 56.0189 52.5392 56.253 51.9999 56.298C51.4605 56.3431 50.9226 56.1959 50.482 55.8829L48.341 54.3598C47.5351 54.7829 46.6915 55.1305 45.821 55.3982L45.381 57.9866C45.2924 58.5185 45.0167 59.0019 44.6033 59.3502C44.1899 59.6985 43.6656 59.8893 43.124 59.8884L39.866 59.8922ZM35.198 52.3047C36.1917 52.8747 37.2575 53.31 38.367 53.599C38.5617 53.6486 38.7376 53.7537 38.8735 53.9011C39.0093 54.0486 39.0991 54.232 39.132 54.4293L39.673 57.6621C39.6805 57.7094 39.7048 57.7525 39.7415 57.7834C39.7782 57.8143 39.8249 57.8309 39.873 57.8303H43.127C43.1751 57.8309 43.2218 57.8143 43.2585 57.7834C43.2953 57.7525 43.3196 57.7094 43.327 57.6621L43.876 54.4293C43.9077 54.2315 43.9971 54.0473 44.1331 53.8997C44.2692 53.752 44.4458 53.6475 44.641 53.599C45.7791 53.3082 46.8698 52.8574 47.88 52.26C48.0538 52.1579 48.2534 52.108 48.455 52.1163C48.6565 52.1246 48.8514 52.1908 49.016 52.3069L51.698 54.2074C51.7313 54.233 51.772 54.247 51.814 54.2473C51.8415 54.2476 51.8687 54.2421 51.894 54.2315C51.9193 54.2209 51.9421 54.2053 51.961 54.1855L54.261 51.8956C54.2944 51.8612 54.3148 51.8164 54.319 51.7687C54.3232 51.7211 54.3109 51.6735 54.284 51.6338L52.375 48.9555C52.2585 48.7917 52.1921 48.5979 52.184 48.3974C52.1758 48.1968 52.2262 47.9981 52.329 47.8255C52.9288 46.8195 53.3817 45.734 53.674 44.6009C53.7241 44.407 53.8297 44.2315 53.9779 44.0961C54.1261 43.9607 54.3106 43.8712 54.509 43.8382L57.755 43.2996C57.8027 43.2924 57.8462 43.2683 57.8774 43.2317C57.9087 43.1952 57.9256 43.1485 57.925 43.1005H57.932V39.8607C57.9326 39.8126 57.9157 39.7662 57.8844 39.7296C57.8532 39.6931 57.8097 39.6688 57.762 39.6616L54.516 39.1152C54.3172 39.084 54.132 38.995 53.9836 38.8595C53.8353 38.724 53.7304 38.548 53.682 38.3534C53.3893 37.2208 52.9365 36.1354 52.337 35.1296C52.2343 34.9566 52.184 34.7576 52.1924 34.5567C52.2007 34.3558 52.2673 34.1617 52.384 33.9977L54.293 31.3285C54.3201 31.2888 54.3326 31.2408 54.3284 31.1929C54.3242 31.145 54.3036 31.1001 54.27 31.0656L51.97 28.7759C51.9508 28.7565 51.9279 28.741 51.9027 28.7304C51.8775 28.7198 51.8504 28.7143 51.823 28.7141C51.7814 28.7167 51.7414 28.7305 51.707 28.754L49.04 30.6613C48.8755 30.7777 48.6806 30.8441 48.479 30.8524C48.2774 30.8607 48.0776 30.8107 47.904 30.7082C46.8697 30.1009 45.7529 29.6447 44.588 29.3541C44.3914 29.3038 44.2136 29.1978 44.0764 29.0488C43.9391 28.8998 43.8484 28.7142 43.815 28.5148L43.274 25.3061C43.2668 25.2586 43.2426 25.2154 43.2058 25.1843C43.1691 25.1532 43.1223 25.1364 43.074 25.1369H39.82C39.7718 25.1364 39.725 25.1532 39.6882 25.1843C39.6515 25.2154 39.6273 25.2586 39.62 25.3061L39.064 28.5617C39.0282 28.7581 38.9373 28.9403 38.8017 29.0872C38.6661 29.2342 38.4915 29.3399 38.298 29.392C37.1616 29.6871 36.0738 30.1435 35.068 30.7471C34.8929 30.8494 34.692 30.8993 34.4891 30.891C34.2863 30.8827 34.0901 30.8165 33.924 30.7002L31.257 28.8087C31.2179 28.78 31.1696 28.7665 31.1212 28.7708C31.0728 28.775 31.0276 28.7966 30.994 28.8315L28.694 31.1215C28.6608 31.1562 28.6404 31.2012 28.6364 31.2491C28.6324 31.2969 28.645 31.3445 28.672 31.3842L30.596 34.0723C30.7138 34.2343 30.7817 34.4272 30.7913 34.627C30.8008 34.8268 30.7518 35.025 30.65 35.1974C30.0573 36.2065 29.6125 37.2946 29.329 38.429C29.2787 38.6248 29.1721 38.8017 29.0224 38.9382C28.8727 39.0747 28.6863 39.1651 28.486 39.1978L25.263 39.7362C25.2153 39.7434 25.1719 39.7677 25.1406 39.8043C25.1094 39.8409 25.0925 39.8875 25.093 39.9355V43.1741C25.0925 43.2222 25.1094 43.2688 25.1406 43.3054C25.1719 43.342 25.2153 43.366 25.263 43.3732L28.533 43.9269C28.7304 43.9624 28.9136 44.0527 29.0615 44.1877C29.2093 44.3227 29.3156 44.4967 29.368 44.6894C29.664 45.8208 30.122 46.9038 30.728 47.9052C30.8309 48.0796 30.8812 48.2799 30.8731 48.482C30.8649 48.6841 30.7986 48.8795 30.682 49.0452L28.782 51.6994C28.755 51.7391 28.7425 51.7867 28.7467 51.8344C28.7509 51.882 28.7715 51.9269 28.805 51.9612L31.105 54.2512C31.1243 54.2704 31.1472 54.2857 31.1724 54.2961C31.1976 54.3065 31.2247 54.312 31.252 54.3119C31.2934 54.3097 31.3334 54.2965 31.368 54.274L34.073 52.3574C34.2475 52.2316 34.4576 52.1644 34.673 52.1654C34.8577 52.1657 35.0392 52.2132 35.2 52.3037L35.198 52.3047ZM33.52 41.4698C33.5202 39.8977 33.9886 38.361 34.866 37.054C35.7434 35.7469 36.9903 34.7282 38.4492 34.1267C39.908 33.5252 41.5132 33.3679 43.0619 33.6746C44.6105 33.9814 46.033 34.7385 47.1496 35.8501C48.2661 36.9617 49.0265 38.3779 49.3346 39.9197C49.6427 41.4616 49.4846 43.0598 48.8805 44.5122C48.2763 45.9646 47.2531 47.206 45.9403 48.0795C44.6275 48.953 43.084 49.4193 41.505 49.4195C39.3874 49.4184 37.3569 48.5803 35.8596 47.0895C34.3623 45.5986 33.5208 43.5771 33.52 41.4688V41.4698ZM35.607 41.4698C35.607 42.6315 35.953 43.7672 36.6013 44.7332C37.2496 45.6991 38.1711 46.4519 39.2492 46.8965C40.3273 47.3411 41.5136 47.4576 42.658 47.2309C43.8025 47.0043 44.8538 46.4448 45.6789 45.6233C46.5041 44.8018 47.066 43.755 47.2937 42.6156C47.5213 41.4761 47.4045 40.2952 46.9579 39.2219C46.5114 38.1485 45.7551 37.231 44.7849 36.5856C43.8146 35.9401 42.6739 35.5956 41.507 35.5956C39.9424 35.5956 38.4419 36.2144 37.3354 37.3158C36.229 38.4171 35.6073 39.9111 35.607 41.4688V41.4698Z" fill="#40975F"/>
</svg>
