<svg width="82" height="82" viewBox="0 0 82 82" fill="none" xmlns="http://www.w3.org/2000/svg">
<path d="M54 0.0671387H28C12.536 0.0671387 0 12.548 0 27.9439V53.8295C0 69.2254 12.536 81.7063 28 81.7063H54C69.464 81.7063 82 69.2254 82 53.8295V27.9439C82 12.548 69.464 0.0671387 54 0.0671387Z" fill="#FFF6D3"/>
<path d="M45.534 46.6394C45.4077 46.6394 45.2825 46.6146 45.1658 46.5664C45.0491 46.5183 44.9431 46.4478 44.8538 46.3588C44.7644 46.2699 44.6935 46.1643 44.6452 46.0481C44.5969 45.9319 44.572 45.8074 44.572 45.6816C44.572 45.5558 44.5969 45.4313 44.6452 45.3151C44.6935 45.1989 44.7644 45.0933 44.8538 45.0044C44.9431 44.9154 45.0491 44.8449 45.1658 44.7967C45.2825 44.7486 45.4077 44.7238 45.534 44.7238H49.072C50.6416 44.7298 52.1515 44.1245 53.279 43.0373C53.8298 42.5096 54.268 41.8766 54.5673 41.1763C54.8666 40.476 55.0208 39.7228 55.0208 38.9618C55.0208 38.2007 54.8666 37.4475 54.5673 36.7472C54.268 36.047 53.8298 35.414 53.279 34.8863C52.1515 33.799 50.6416 33.1938 49.072 33.1997C48.846 33.1997 48.641 33.2087 48.461 33.2266C48.261 33.2465 48.061 33.2758 47.861 33.3143C47.6354 33.3608 47.4006 33.3275 47.1969 33.2203C46.9932 33.1131 46.8334 32.9387 46.745 32.7269C46.1574 31.2832 45.1442 30.0505 43.839 29.1915C42.3133 28.1905 40.4913 27.7354 38.6718 27.901C36.8522 28.0665 35.1431 28.8428 33.825 30.1024C33.096 30.8017 32.516 31.64 32.1194 32.5673C31.7229 33.4945 31.518 34.4918 31.517 35.4996C31.517 35.5245 31.517 35.5504 31.517 35.5753V35.6151C31.5154 35.8716 31.4116 36.1169 31.2284 36.2973C31.0452 36.4776 30.7976 36.5781 30.54 36.5768H30.485L30.316 36.5689H30.188C29.0771 36.5651 28.0087 36.9939 27.211 37.7636C26.821 38.1369 26.5108 38.5847 26.2988 39.0802C26.0869 39.5757 25.9777 40.1087 25.9777 40.6473C25.9777 41.1859 26.0869 41.7189 26.2988 42.2145C26.5108 42.71 26.821 43.1578 27.211 43.5311C28.0088 44.3007 29.0771 44.7295 30.188 44.7258H34.94C35.1951 44.7258 35.4398 44.8267 35.6202 45.0063C35.8006 45.1859 35.902 45.4296 35.902 45.6836C35.902 45.9376 35.8006 46.1812 35.6202 46.3608C35.4398 46.5404 35.1951 46.6413 34.94 46.6413H30.188C28.5552 46.6467 26.9849 46.0169 25.812 44.8861C25.2383 44.3379 24.7819 43.6799 24.4701 42.9517C24.1583 42.2234 23.9976 41.44 23.9976 40.6483C23.9976 39.8567 24.1583 39.0732 24.4701 38.345C24.7819 37.6167 25.2383 36.9588 25.812 36.4106C26.8311 35.4248 28.1574 34.8145 29.572 34.6802C29.7751 32.425 30.7881 30.3183 32.425 28.7464C34.0728 27.1694 36.2107 26.1979 38.487 25.9916C40.7633 25.7853 43.0422 26.3566 44.949 27.6115C46.3591 28.5407 47.5011 29.8204 48.262 31.324C48.546 31.2962 48.815 31.2822 49.062 31.2822C51.1537 31.2755 53.1653 32.0825 54.668 33.5313C55.4019 34.2335 55.9857 35.0761 56.3846 36.0085C56.7834 36.9409 56.989 37.9439 56.989 38.9573C56.989 39.9707 56.7834 40.9737 56.3846 41.9061C55.9857 42.8385 55.4019 43.6811 54.668 44.3833C53.1653 45.8321 51.1537 46.6391 49.062 46.6324L45.534 46.6394Z" fill="#333333"/>
<path d="M39.511 36.0253C39.511 35.7642 39.6152 35.5137 39.8007 35.329C39.9861 35.1444 40.2377 35.0406 40.5 35.0406C40.7623 35.0406 41.0138 35.1444 41.1993 35.329C41.3848 35.5137 41.489 35.7642 41.489 36.0253V54.863C41.489 55.1242 41.3848 55.3746 41.1993 55.5593C41.0138 55.744 40.7623 55.8477 40.5 55.8477C40.2377 55.8477 39.9861 55.744 39.8007 55.5593C39.6152 55.3746 39.511 55.1242 39.511 54.863V36.0253Z" fill="#333333"/>
<path d="M47.302 40.685C47.3933 40.7723 47.466 40.8771 47.5156 40.9931C47.5653 41.1091 47.5909 41.2338 47.5909 41.3599C47.5909 41.486 47.5653 41.6108 47.5156 41.7267C47.466 41.8427 47.3933 41.9475 47.302 42.0348C47.1145 42.2141 46.8645 42.3143 46.6045 42.3143C46.3445 42.3143 46.0945 42.2141 45.907 42.0348L40.507 36.7587L35.107 42.0348C34.9195 42.2141 34.6695 42.3143 34.4095 42.3143C34.1495 42.3143 33.8995 42.2141 33.712 42.0348C33.6206 41.9475 33.5479 41.8427 33.4983 41.7267C33.4486 41.6108 33.423 41.486 33.423 41.3599C33.423 41.2338 33.4486 41.1091 33.4983 40.9931C33.5479 40.8771 33.6206 40.7723 33.712 40.685L39.812 34.726C39.9995 34.5467 40.2494 34.4465 40.5095 34.4465C40.7695 34.4465 41.0194 34.5467 41.207 34.726L47.3069 40.685H47.302Z" fill="#333333"/>
<path d="M39.511 54.863V37.7217L35.097 42.0325C34.9093 42.2133 34.6582 42.3145 34.397 42.3145C34.1358 42.3145 33.8848 42.2133 33.697 42.0325C33.6058 41.9451 33.5332 41.8403 33.4836 41.7243C33.4341 41.6083 33.4086 41.4836 33.4086 41.3575C33.4086 41.2315 33.4341 41.1067 33.4836 40.9907C33.5332 40.8747 33.6058 40.7699 33.697 40.6825L39.797 34.723C39.9849 34.5425 40.2358 34.4416 40.4969 34.4416C40.7581 34.4416 41.0091 34.5425 41.197 34.723L47.297 40.6825C47.3882 40.7699 47.4608 40.8747 47.5104 40.9907C47.5599 41.1067 47.5854 41.2315 47.5854 41.3575C47.5854 41.4836 47.5599 41.6083 47.5104 41.7243C47.4608 41.8403 47.3882 41.9451 47.297 42.0325C47.1096 42.2118 46.8598 42.312 46.6 42.312C46.3401 42.312 46.0903 42.2118 45.903 42.0325L41.489 37.7217V54.863C41.4776 55.1165 41.3683 55.3556 41.1841 55.531C40.9999 55.7063 40.7549 55.8042 40.5 55.8042C40.2451 55.8042 40.0001 55.7063 39.8159 55.531C39.6317 55.3556 39.5224 55.1165 39.511 54.863ZM45.5341 46.6394C45.2789 46.6394 45.0342 46.5385 44.8538 46.3589C44.6733 46.1792 44.572 45.9354 44.572 45.6814C44.572 45.4274 44.6733 45.1839 44.8538 45.0042C45.0342 44.8246 45.2789 44.7237 45.5341 44.7237H49.071C50.6412 44.7299 52.1516 44.1242 53.2791 43.0361C53.8299 42.5084 54.268 41.8755 54.5673 41.1752C54.8666 40.4749 55.0209 39.7217 55.0209 38.9606C55.0209 38.1996 54.8666 37.4464 54.5673 36.7461C54.268 36.0458 53.8299 35.4129 53.2791 34.8852C52.1512 33.7978 50.641 33.1927 49.071 33.1988C48.846 33.1988 48.6411 33.2076 48.4611 33.2255C48.2597 33.2443 48.0593 33.2737 47.861 33.3132C47.6354 33.3596 47.4006 33.3261 47.197 33.2189C46.9934 33.1118 46.8336 32.9374 46.745 32.7258C46.1575 31.2817 45.1443 30.0488 43.839 29.1894C42.3134 28.1887 40.4916 27.7337 38.6722 27.8992C36.8529 28.0647 35.1441 28.841 33.826 30.1004C33.097 30.7996 32.5169 31.6378 32.1204 32.5651C31.7238 33.4924 31.5189 34.4896 31.5179 35.4974C31.5179 35.5223 31.5179 35.5494 31.5179 35.5742V35.6141C31.5173 35.7411 31.4916 35.8667 31.4421 35.9838C31.3927 36.1009 31.3205 36.2071 31.2297 36.2964C31.139 36.3857 31.0315 36.4565 30.9133 36.5045C30.7952 36.5524 30.6686 36.5765 30.541 36.5757H30.486L30.318 36.5689H30.1899C29.079 36.5647 28.0105 36.9935 27.213 37.7635C26.8229 38.1367 26.5126 38.5843 26.3007 39.0797C26.0887 39.5752 25.9794 40.1083 25.9794 40.6468C25.9794 41.1853 26.0887 41.7184 26.3007 42.2138C26.5126 42.7093 26.8229 43.1569 27.213 43.53C28.0106 44.2999 29.079 44.7287 30.1899 44.7247H34.942C35.1972 44.7247 35.4418 44.8256 35.6222 45.0052C35.8026 45.1848 35.9041 45.4284 35.9041 45.6824C35.9041 45.9364 35.8026 46.1802 35.6222 46.3598C35.4418 46.5394 35.1972 46.6403 34.942 46.6403H30.1899C28.5569 46.6458 26.9863 46.016 25.813 44.8851C25.2401 44.3365 24.7843 43.6783 24.473 42.9501C24.1617 42.2219 24.0012 41.4387 24.0012 40.6473C24.0012 39.8559 24.1617 39.0727 24.473 38.3445C24.7843 37.6163 25.2401 36.9581 25.813 36.4094C26.8342 35.4243 28.1623 34.8154 29.578 34.6832C29.781 32.4281 30.7936 30.3215 32.4301 28.7494C34.0779 27.1724 36.2158 26.2008 38.4921 25.9945C40.7683 25.7882 43.0472 26.3595 44.954 27.6143C46.3644 28.5437 47.5064 29.8238 48.267 31.3279C48.551 31.3 48.82 31.2861 49.067 31.2861C51.1591 31.2793 53.171 32.0863 54.674 33.5352C55.4079 34.2374 55.9918 35.0801 56.3906 36.0125C56.7895 36.9449 56.9951 37.9477 56.9951 38.9611C56.9951 39.9746 56.7895 40.9776 56.3906 41.91C55.9918 42.8424 55.4079 43.6851 54.674 44.3873C53.171 45.8362 51.1591 46.643 49.067 46.6362L45.5341 46.6394Z" fill="#D6AB00"/>
</svg>
