<svg width="82" height="82" viewBox="0 0 82 82" fill="none" xmlns="http://www.w3.org/2000/svg">
<path d="M54 0.15625H28C12.536 0.15625 0 12.6371 0 28.033V53.9186C0 69.3145 12.536 81.7954 28 81.7954H54C69.464 81.7954 82 69.3145 82 53.9186V28.033C82 12.6371 69.464 0.15625 54 0.15625Z" fill="#F4F4FF"/>
<path d="M46.684 59.5118L43.368 56.1468L40.051 59.5118C39.9338 59.6312 39.7938 59.7262 39.6392 59.7909C39.4847 59.8556 39.3187 59.8888 39.151 59.8888C38.9833 59.8888 38.8173 59.8556 38.6628 59.7909C38.5082 59.7262 38.3682 59.6312 38.251 59.5118C38.011 59.2668 37.8768 58.9382 37.8768 58.596C37.8768 58.2537 38.011 57.9251 38.251 57.6801L41.568 54.3148L38.251 50.9508C38.011 50.7058 37.8768 50.3771 37.8768 50.0349C37.8768 49.6927 38.011 49.3639 38.251 49.1188C38.3683 48.9996 38.5084 48.9049 38.6629 48.8403C38.8174 48.7756 38.9834 48.7423 39.151 48.7423C39.3186 48.7423 39.4846 48.7756 39.6391 48.8403C39.7936 48.9049 39.9337 48.9996 40.051 49.1188L43.368 52.4841L46.684 49.1188C46.8013 48.9996 46.9413 48.9049 47.0959 48.8403C47.2504 48.7756 47.4164 48.7423 47.584 48.7423C47.7516 48.7423 47.9176 48.7756 48.0721 48.8403C48.2267 48.9049 48.3667 48.9996 48.484 49.1188C48.7237 49.364 48.8578 49.6928 48.8578 50.0349C48.8578 50.3771 48.7237 50.7056 48.484 50.9508L45.168 54.3148L48.484 57.6801C48.7239 57.9251 48.8582 58.2537 48.8582 58.596C48.8582 58.9382 48.7239 59.2668 48.484 59.5118C48.3668 59.6312 48.2268 59.7262 48.0722 59.7909C47.9177 59.8556 47.7517 59.8888 47.584 59.8888C47.4163 59.8888 47.2504 59.8556 47.0958 59.7909C46.9413 59.7262 46.8013 59.6312 46.684 59.5118ZM22.119 53.6996C22.1326 52.9601 22.3653 52.2409 22.7878 51.6326C23.2104 51.0243 23.8041 50.5538 24.4943 50.2802C25.1845 50.0066 25.9405 49.9421 26.6674 50.0947C27.3943 50.2473 28.0598 50.6102 28.5803 51.138C29.1007 51.6658 29.453 52.3349 29.5929 53.0613C29.7328 53.7878 29.6541 54.5392 29.3666 55.2212C29.0791 55.9033 28.5957 56.4855 27.977 56.895C27.3583 57.3045 26.6319 57.5229 25.889 57.5228C24.8801 57.5131 23.9163 57.1049 23.2096 56.388C22.5028 55.6711 22.1109 54.7041 22.12 53.6996H22.119ZM25.891 47.746C25.6307 47.7461 25.3708 47.764 25.113 47.7997C25.9174 44.8989 27.2421 42.1667 29.023 39.7352C30.8379 37.2564 33.1509 35.1807 35.8151 33.6399C38.4792 32.099 41.4361 31.1266 44.498 30.7848L41.769 28.3775C41.513 28.1496 41.3566 27.8311 41.3331 27.49C41.3095 27.149 41.4208 26.8122 41.643 26.5516C41.7514 26.4235 41.8845 26.3184 42.0344 26.2424C42.1843 26.1664 42.348 26.1209 42.5157 26.1089C42.6835 26.097 42.852 26.1187 43.0113 26.1726C43.1705 26.2266 43.3174 26.3119 43.443 26.4232L48.588 30.9632C48.844 31.1913 49.0005 31.5099 49.024 31.8511C49.0475 32.1924 48.9363 32.5293 48.714 32.7901L44.241 38.0119C44.1326 38.14 43.9995 38.2453 43.8495 38.3213C43.6996 38.3973 43.5359 38.4426 43.368 38.4545C43.2002 38.4664 43.0317 38.4445 42.8724 38.3904C42.7132 38.3362 42.5665 38.2508 42.441 38.1393C42.185 37.9113 42.0286 37.5929 42.0051 37.2518C41.9815 36.9107 42.0928 36.574 42.315 36.3134L44.858 33.3445C42.1454 33.6254 39.5222 34.4698 37.1577 35.8228C34.7932 37.1759 32.7401 39.0077 31.131 41.2C29.608 43.27 28.4492 45.5823 27.704 48.0386C27.1197 47.8449 26.5079 47.7461 25.892 47.746H25.891ZM53.459 31.6878C53.4724 30.9482 53.7049 30.2292 54.1274 29.6208C54.5498 29.0123 55.1434 28.5416 55.8336 28.2679C56.5238 27.9941 57.2798 27.9294 58.0068 28.0819C58.7338 28.2344 59.3994 28.5972 59.92 29.1249C60.4405 29.6527 60.7929 30.3219 60.9329 31.0483C61.0728 31.7747 60.9941 32.5261 60.7067 33.2082C60.4192 33.8903 59.9358 34.4727 59.3171 34.8822C58.6984 35.2917 57.972 35.5101 57.229 35.51C56.2203 35.5003 55.2567 35.0923 54.55 34.3756C53.8433 33.6589 53.4512 32.6921 53.46 31.6878H53.459ZM29.811 33.8265L26.494 30.4613L23.178 33.8265C23.0607 33.9457 22.9207 34.0404 22.7661 34.1051C22.6116 34.1697 22.4456 34.2031 22.278 34.2031C22.1104 34.2031 21.9444 34.1697 21.7899 34.1051C21.6353 34.0404 21.4953 33.9457 21.378 33.8265C21.1381 33.5815 21.0038 33.2526 21.0038 32.9104C21.0038 32.5682 21.1381 32.2396 21.378 31.9946L24.695 28.6295L21.378 25.2653C21.1381 25.0202 21.0038 24.6916 21.0038 24.3494C21.0038 24.0072 21.1381 23.6783 21.378 23.4333C21.4952 23.3138 21.6352 23.219 21.7897 23.1542C21.9443 23.0894 22.1103 23.056 22.278 23.056C22.4457 23.056 22.6117 23.0894 22.7663 23.1542C22.9209 23.219 23.0608 23.3138 23.178 23.4333L26.494 26.7985L29.811 23.4333C29.9282 23.3138 30.0682 23.219 30.2227 23.1542C30.3773 23.0894 30.5433 23.056 30.711 23.056C30.8787 23.056 31.0447 23.0894 31.1993 23.1542C31.3538 23.219 31.4938 23.3138 31.611 23.4333C31.8505 23.6786 31.9844 24.0073 31.9844 24.3494C31.9844 24.6915 31.8505 25.02 31.611 25.2653L28.294 28.6305L31.61 31.9946C31.8499 32.2396 31.9842 32.5682 31.9842 32.9104C31.9842 33.2526 31.8499 33.5815 31.61 33.8265C31.4927 33.9459 31.3527 34.0406 31.1982 34.1053C31.0436 34.1701 30.8777 34.2033 30.71 34.2033C30.5424 34.2033 30.3764 34.1701 30.2218 34.1053C30.0673 34.0406 29.9272 33.9459 29.81 33.8265H29.811Z" fill="#5856D6"/>
</svg>
