<svg width="82" height="82" viewBox="0 0 82 82" fill="none" xmlns="http://www.w3.org/2000/svg">
<path opacity="0.102" d="M54 0.0671387H28C12.536 0.0671387 0 12.548 0 27.9439V53.8295C0 69.2254 12.536 81.7063 28 81.7063H54C69.464 81.7063 82 69.2254 82 53.8295V27.9439C82 12.548 69.464 0.0671387 54 0.0671387Z" fill="#FF4361"/>
<path d="M49.229 51.2968C49.3623 50.3179 49.2511 49.3214 48.9051 48.3956C48.2173 47.2619 47.2314 46.3368 46.054 45.7204C45.697 45.4864 45.469 45.3441 45.235 45.1977C43.698 44.233 42.0831 43.2194 41.5011 41.7937C40.9201 43.2184 39.301 44.233 37.769 45.1967C37.461 45.3908 37.158 45.58 36.948 45.7174C35.7684 46.3385 34.7839 47.2718 34.1031 48.4145C33.7608 49.3339 33.6482 50.3224 33.775 51.2948L49.229 51.2968ZM50.696 47.5722C51.2621 49.0759 51.4107 50.7037 51.1261 52.2844C51.1255 52.5451 51.021 52.7949 50.8356 52.979C50.6502 53.1631 50.3989 53.2663 50.137 53.2661H32.862C32.6156 53.266 32.3781 53.1739 32.1965 53.008C32.0149 52.8421 31.9023 52.6145 31.881 52.37C31.595 50.771 31.7431 49.125 32.31 47.6021C32.897 46.3237 33.976 45.3182 35.867 44.0806C36.194 43.8666 36.456 43.7013 36.718 43.5381C38.186 42.6161 39.747 41.6355 39.747 40.6508C39.747 39.6662 38.186 38.6885 36.718 37.7636C36.457 37.6003 36.195 37.435 35.867 37.221C33.904 35.9366 32.8121 34.8405 32.2411 33.4656C31.7127 31.879 31.5873 30.1869 31.8761 28.5403C31.8792 28.2814 31.9846 28.034 32.1695 27.8518C32.3544 27.6696 32.6039 27.5672 32.864 27.5667H50.1341C50.3793 27.5666 50.6157 27.6575 50.7971 27.8217C50.9785 27.986 51.0919 28.2117 51.115 28.4547C51.4143 30.127 51.2916 31.8471 50.758 33.4606C50.188 34.8345 49.095 35.9317 47.132 37.216C46.799 37.434 46.5421 37.5953 46.2801 37.7596C44.8131 38.6805 43.2511 39.6612 43.2511 40.6468C43.2511 41.6325 44.814 42.6092 46.282 43.5341C46.617 43.7441 46.952 43.9552 47.131 44.0727C49.024 45.3112 50.107 46.2958 50.695 47.5652L50.696 47.5722ZM41.4961 39.5079C42.0771 38.0832 43.696 37.0696 45.229 36.1049C45.536 35.9118 45.844 35.7196 46.049 35.5852C47.2766 34.9397 48.2813 33.9422 48.933 32.7218C49.2737 31.6961 49.374 30.6063 49.226 29.5359H33.77C33.622 30.6063 33.7226 31.6962 34.0641 32.7218C34.7156 33.942 35.7199 34.9395 36.947 35.5852C37.157 35.7216 37.46 35.9128 37.768 36.1049C39.304 37.0686 40.919 38.0832 41.5 39.5079H41.4961Z" fill="#333333"/>
<path d="M30.773 23.9615H52.223C52.5864 23.962 52.9461 24.0338 53.2816 24.1728C53.6171 24.3119 53.9217 24.5155 54.178 24.7719C54.4356 25.028 54.64 25.3321 54.7795 25.6669C54.919 26.0017 54.9909 26.3606 54.991 26.723C54.9904 27.0854 54.918 27.444 54.778 27.7785C54.6379 28.1129 54.433 28.4166 54.175 28.6722C53.918 28.9293 53.6127 29.1332 53.2763 29.2725C52.94 29.4117 52.5793 29.4834 52.215 29.4835H30.773C30.4089 29.4833 30.0485 29.4115 29.7123 29.2723C29.3761 29.1331 29.0708 28.9291 28.814 28.6722C28.5562 28.4166 28.3515 28.1128 28.2116 27.7784C28.0718 27.4439 27.9995 27.0853 27.999 26.723C27.9994 26.3612 28.0714 26.003 28.2109 25.6689C28.3504 25.3348 28.5546 25.0313 28.812 24.7759C29.0683 24.5194 29.3729 24.3157 29.7084 24.1767C30.0439 24.0376 30.4036 23.9659 30.767 23.9655L30.773 23.9615ZM52.227 25.9306H30.773C30.5626 25.9307 30.3607 26.0133 30.211 26.1606C30.0633 26.3093 29.9803 26.5099 29.98 26.719C29.9797 26.8227 30 26.9253 30.0397 27.0212C30.0793 27.117 30.1375 27.2041 30.211 27.2775C30.3602 27.4259 30.5622 27.5096 30.773 27.5105H52.223C52.3273 27.5103 52.4306 27.4897 52.5269 27.4497C52.6231 27.4097 52.7105 27.3512 52.784 27.2775C52.8575 27.2041 52.9157 27.117 52.9554 27.0212C52.995 26.9253 53.0153 26.8227 53.015 26.719C53.0146 26.6151 52.9937 26.5123 52.9534 26.4165C52.913 26.3207 52.8541 26.2337 52.78 26.1606C52.6304 26.0123 52.428 25.929 52.217 25.9286L52.227 25.9306Z" fill="#333333"/>
<path d="M30.773 51.2968H52.223C52.5872 51.2969 52.9478 51.3685 53.2841 51.5076C53.6204 51.6466 53.9259 51.8503 54.183 52.1071C54.4409 52.3625 54.6458 52.6661 54.7858 53.0003C54.9258 53.3346 54.9982 53.6931 54.999 54.0553C54.9974 54.787 54.7048 55.4883 54.1851 56.0058C53.6655 56.5233 52.9611 56.8149 52.226 56.8167H30.773C30.4089 56.8165 30.0485 56.7447 29.7123 56.6055C29.3761 56.4663 29.0708 56.2623 28.814 56.0054C28.5566 55.7499 28.3523 55.4465 28.2128 55.1124C28.0733 54.7783 28.0014 54.42 28.001 54.0582C28.0017 53.6961 28.074 53.3377 28.2138 53.0034C28.3536 52.6692 28.5583 52.3656 28.816 52.1101C29.073 51.8534 29.3783 51.6498 29.7145 51.5107C30.0506 51.3717 30.411 51.3 30.775 51.2997L30.773 51.2968ZM52.227 53.2658H30.773C30.562 53.267 30.36 53.351 30.211 53.4998C30.1375 53.5729 30.0792 53.6598 30.0396 53.7555C29.9999 53.8512 29.9796 53.9537 29.98 54.0572C29.9801 54.2677 30.0639 54.4696 30.213 54.6187C30.3622 54.767 30.5642 54.8507 30.775 54.8516H52.223C52.3281 54.8516 52.4321 54.831 52.5292 54.791C52.6262 54.751 52.7144 54.6923 52.7887 54.6184C52.863 54.5444 52.9219 54.4566 52.9621 54.36C53.0023 54.2634 53.023 54.1598 53.023 54.0553C53.0234 53.9518 53.0031 53.8492 52.9635 53.7535C52.9239 53.6578 52.8655 53.5709 52.792 53.4978C52.7185 53.424 52.6312 53.3653 52.5349 53.3251C52.4386 53.285 52.3354 53.2641 52.231 53.2638L52.227 53.2658Z" fill="#333333"/>
<path d="M30.774 56.8164C30.4098 56.8162 30.0492 56.7444 29.7129 56.6054C29.3766 56.4663 29.0711 56.2627 28.814 56.006C28.5565 55.7506 28.3521 55.4471 28.2126 55.1129C28.0731 54.7788 28.0012 54.4204 28.001 54.0585C28.0013 53.6962 28.0735 53.3374 28.2133 53.0029C28.3532 52.6684 28.558 52.3647 28.816 52.1091C29.0732 51.8525 29.3787 51.6488 29.715 51.5097C30.0513 51.3707 30.4118 51.299 30.776 51.2988H31.8C31.6587 50.0439 31.8336 48.7739 32.309 47.6032C32.896 46.3258 33.975 45.3192 35.866 44.0816C36.193 43.8676 36.455 43.7024 36.716 43.5401C38.184 42.6182 39.745 41.6363 39.745 40.6527C39.745 39.669 38.183 38.6905 36.716 37.7656C36.454 37.6023 36.192 37.4381 35.866 37.224C33.903 35.9397 32.811 34.8435 32.24 33.4686C31.7811 32.194 31.6293 30.8299 31.797 29.4862H30.772C30.4078 29.4863 30.0471 29.4146 29.7108 29.2755C29.3744 29.1364 29.069 28.9327 28.812 28.6758C28.5539 28.4205 28.3491 28.1168 28.2094 27.7823C28.0696 27.4479 27.9977 27.0892 27.9977 26.7269C27.9977 26.3647 28.0696 26.006 28.2094 25.6715C28.3491 25.3371 28.5539 25.0334 28.812 24.778C29.0683 24.5213 29.373 24.3175 29.7087 24.1784C30.0444 24.0393 30.4044 23.9678 30.768 23.9677H52.221C52.5845 23.9679 52.9445 24.0396 53.2802 24.1786C53.6158 24.3177 53.9206 24.5214 54.177 24.778C54.4351 25.0337 54.64 25.3376 54.7798 25.6723C54.9195 26.007 54.9915 26.3659 54.9915 26.7284C54.9915 27.0909 54.9195 27.4498 54.7798 27.7845C54.64 28.1192 54.4351 28.4231 54.177 28.6788C53.9199 28.9357 53.6145 29.1396 53.2781 29.2786C52.9418 29.4177 52.5812 29.4892 52.217 29.4891H51.2C51.368 30.8328 51.2165 32.1969 50.758 33.4715C50.187 34.8465 49.095 35.9426 47.132 37.2269C46.8 37.4459 46.542 37.6062 46.281 37.7694C44.814 38.6904 43.252 39.6722 43.252 40.6568C43.252 41.6415 44.815 42.6191 46.284 43.544C46.618 43.753 46.954 43.9651 47.133 44.0826C49.026 45.3221 50.109 46.3068 50.697 47.5752C51.1768 48.7544 51.3488 50.0354 51.197 51.2988H52.222C52.9574 51.2994 53.6624 51.5909 54.182 52.1091C54.4401 52.3647 54.645 52.6684 54.785 53.0029C54.9251 53.3374 54.9974 53.6961 54.998 54.0585C54.9966 54.7906 54.704 55.4922 54.184 56.0099C53.6641 56.5275 52.9593 56.8189 52.224 56.8202L30.774 56.8164ZM30.774 54.8461H52.227C52.4383 54.8461 52.641 54.763 52.7909 54.6147C52.9408 54.4664 53.0257 54.265 53.027 54.0546C53.0274 53.9511 53.0072 53.8483 52.9678 53.7525C52.9283 53.6567 52.8703 53.5696 52.797 53.4961C52.7234 53.4222 52.6358 53.3634 52.5394 53.3233C52.443 53.2831 52.3395 53.2622 52.235 53.262H30.774C30.563 53.2632 30.361 53.3473 30.212 53.4961C30.1384 53.5694 30.0801 53.6564 30.0404 53.7523C30.0008 53.8481 29.9805 53.951 29.981 54.0546C29.9813 54.2648 30.0651 54.4662 30.214 54.6152C30.3626 54.7628 30.564 54.8458 30.774 54.8461ZM37.769 45.1937C37.461 45.3868 37.158 45.5772 36.948 45.7145C35.7682 46.336 34.7837 47.2696 34.103 48.4126C33.7603 49.3319 33.6477 50.3203 33.775 51.2927H49.23C49.3634 50.3137 49.2518 49.3173 48.905 48.3917C48.2177 47.2576 47.2317 46.3325 46.054 45.7165C45.697 45.4825 45.469 45.34 45.236 45.1927C43.698 44.2279 42.083 43.2145 41.502 41.7888C40.919 43.2155 39.3 44.2299 37.769 45.1937ZM34.069 32.7219C34.7212 33.942 35.7257 34.9393 36.953 35.5852C37.163 35.7216 37.466 35.9128 37.774 36.1049C39.31 37.0697 40.925 38.0831 41.505 39.5079C42.086 38.0831 43.705 37.0697 45.237 36.1049C45.544 35.9128 45.852 35.7197 46.057 35.5852C47.2845 34.9397 48.2892 33.9423 48.941 32.7219C49.2811 31.696 49.3814 30.6064 49.234 29.5361H33.771C33.623 30.6067 33.7232 31.6968 34.064 32.7229L34.069 32.7219ZM30.216 26.1599C30.0685 26.3089 29.9858 26.5097 29.9858 26.7189C29.9858 26.9281 30.0685 27.129 30.216 27.278C30.3654 27.4266 30.5678 27.5102 30.779 27.5108H52.232C52.3364 27.5108 52.4399 27.4903 52.5363 27.4503C52.6328 27.4103 52.7203 27.3517 52.794 27.278C52.8677 27.2046 52.9262 27.1175 52.9661 27.0215C53.006 26.9256 53.0266 26.8227 53.0266 26.7189C53.0266 26.6151 53.006 26.5122 52.9661 26.4163C52.9262 26.3204 52.8677 26.2333 52.794 26.1599C52.6444 26.0116 52.442 25.9283 52.231 25.928H30.774C30.5629 25.9283 30.3606 26.0116 30.211 26.1599H30.216Z" fill="#F55767"/>
</svg>
