<svg width="82" height="82" viewBox="0 0 82 82" fill="none" xmlns="http://www.w3.org/2000/svg">
<path d="M54 0.0671387H28C12.536 0.0671387 0 12.548 0 27.9439V53.8295C0 69.2254 12.536 81.7063 28 81.7063H54C69.464 81.7063 82 69.2254 82 53.8295V27.9439C82 12.548 69.464 0.0671387 54 0.0671387Z" fill="#EAF9FF"/>
<path d="M30.653 60.7987C30.5319 60.7983 30.412 60.7741 30.3002 60.7275C30.1884 60.681 30.087 60.6131 30.0016 60.5275C29.9163 60.4419 29.8487 60.3404 29.8028 60.2287C29.7569 60.1171 29.7335 59.9974 29.734 59.8768V57.6955C29.7322 56.9651 30.0214 56.2637 30.5383 55.7454C31.0552 55.2271 31.7574 54.9341 32.4911 54.9306H34.2V50.7022C34.1991 50.4964 34.2675 50.2964 34.3944 50.134C34.5214 49.9715 34.6994 49.856 34.9001 49.8063H34.912C35.9085 49.5736 36.7863 48.9889 37.3824 48.1605C37.9784 47.3321 38.2523 46.3165 38.153 45.3023C35.8782 44.2411 34.0107 42.4736 32.831 40.2655C32.3585 39.4641 31.9438 38.6305 31.5901 37.7706C29.6033 36.6814 27.891 35.1569 26.5824 33.3126C25.2738 31.4682 24.4031 29.352 24.036 27.1236C23.9701 26.7147 23.9941 26.2964 24.1061 25.8976C24.2182 25.4987 24.4157 25.1286 24.6851 24.813C24.9546 24.4975 25.2895 24.2438 25.6668 24.0695C26.0442 23.8951 26.455 23.8044 26.871 23.8033H29.646V22.9331C29.6444 22.4172 29.8486 21.9217 30.2137 21.5554C30.5787 21.1892 31.0748 20.982 31.593 20.9796H50.407C50.9253 20.982 51.4216 21.1892 51.7868 21.5554C52.152 21.9217 52.3563 22.4171 52.355 22.9331V23.8033H55.1291C55.545 23.8046 55.9557 23.8956 56.333 24.07C56.7102 24.2443 57.0451 24.498 57.3145 24.8135C57.5839 25.129 57.7815 25.4988 57.8936 25.8976C58.0057 26.2964 58.0297 26.7147 57.964 27.1236C57.597 29.3518 56.7265 31.4679 55.4181 33.3123C54.1097 35.1567 52.3976 36.6812 50.411 37.7706C50.0566 38.6304 49.6416 39.464 49.169 40.2655C48.0016 42.4423 46.1689 44.193 43.936 45.2644C43.8263 46.2844 44.0949 47.3091 44.6913 48.1457C45.2876 48.9822 46.1707 49.5729 47.174 49.8063H47.185C47.3869 49.8547 47.5666 49.9694 47.6949 50.132C47.8231 50.2946 47.8926 50.4955 47.8921 50.7022V54.9306H49.592C50.3257 54.9341 51.0281 55.2271 51.5451 55.7454C52.0622 56.2637 52.3516 56.965 52.35 57.6955V59.8768C52.3504 59.9975 52.3269 60.1171 52.2809 60.2287C52.2349 60.3404 52.1672 60.4419 52.0818 60.5275C51.9964 60.6131 51.8948 60.6812 51.783 60.7278C51.6712 60.7743 51.5512 60.7983 51.43 60.7987H30.653ZM31.5721 57.6945V58.9548H50.516V57.6945C50.5166 57.4512 50.4201 57.2175 50.2478 57.0448C50.0755 56.8722 49.8415 56.7746 49.597 56.7736H32.4911C32.2468 56.7746 32.0129 56.8719 31.8406 57.0443C31.6683 57.2168 31.5718 57.4504 31.5721 57.6936V57.6945ZM36.034 54.9297H46.055V51.6232H36.034V54.9297ZM39.0641 48.966C38.8804 49.2538 38.673 49.5258 38.444 49.7793H43.653C42.6582 48.6838 42.097 47.2659 42.074 45.7891C41.7184 45.8414 41.3594 45.8666 41 45.8647C40.6695 45.8647 40.3394 45.842 40.0121 45.7969C39.9989 46.9203 39.6705 48.0177 39.0641 48.9651V48.966ZM31.484 22.928V27.3377C31.393 31.5176 32.4021 35.6483 34.411 39.3197C36.211 42.3563 38.55 44.0279 41 44.0279C43.45 44.0279 45.79 42.3573 47.589 39.3197C49.598 35.6483 50.6071 31.5176 50.516 27.3377V22.928C50.5162 22.9136 50.5134 22.8994 50.508 22.886C50.5025 22.8726 50.4944 22.8603 50.4842 22.85C50.4739 22.8397 50.4617 22.8315 50.4483 22.8259C50.4349 22.8204 50.4206 22.8177 50.406 22.8177H31.593C31.564 22.8179 31.5363 22.8295 31.5159 22.85C31.4955 22.8705 31.484 22.8982 31.484 22.9271V22.928ZM52.354 27.3377C52.3638 29.8998 52.0343 32.4517 51.3741 34.928C53.9194 32.9087 55.6207 30.0203 56.148 26.8229C56.1721 26.6789 56.1641 26.5313 56.1245 26.3908C56.0849 26.2502 56.0148 26.12 55.919 26.0094C55.822 25.8942 55.7008 25.8015 55.564 25.7379C55.4272 25.6742 55.2781 25.6413 55.127 25.6411H52.3531L52.354 27.3377ZM26.079 26.0084C25.9831 26.1191 25.913 26.2495 25.8734 26.3903C25.8338 26.531 25.8258 26.6788 25.85 26.8229C26.3777 30.0205 28.0794 32.9088 30.625 34.928C29.9651 32.4516 29.6359 29.8997 29.646 27.3377V25.645H26.871C26.7206 25.6445 26.5719 25.6767 26.4353 25.7393C26.2987 25.8019 26.1775 25.8934 26.08 26.0074L26.079 26.0084ZM37.5511 37.0159C37.4121 36.9144 37.3043 36.7762 37.2398 36.617C37.1754 36.4579 37.1567 36.284 37.186 36.1149L37.659 33.3442L35.652 31.3829C35.5292 31.2622 35.4425 31.11 35.4016 30.9431C35.3606 30.7763 35.367 30.6012 35.42 30.4378C35.4724 30.2745 35.5696 30.1293 35.7008 30.0183C35.8319 29.9072 35.9917 29.8349 36.162 29.8097L38.935 29.4055L40.175 26.8856C40.25 26.7314 40.3671 26.6014 40.513 26.5103C40.6588 26.4193 40.8274 26.3711 40.9995 26.3711C41.1717 26.3711 41.3403 26.4193 41.4861 26.5103C41.6319 26.6014 41.749 26.7314 41.824 26.8856L43.063 29.4055L45.836 29.8097C46.0066 29.8354 46.1665 29.9078 46.2979 30.019C46.4294 30.1302 46.527 30.2758 46.5799 30.4393C46.6328 30.6027 46.6388 30.7777 46.5973 30.9444C46.5558 31.111 46.4684 31.2629 46.345 31.3829L44.339 33.3442L44.812 36.1149C44.8411 36.284 44.8224 36.4577 44.7579 36.6168C44.6934 36.7759 44.5858 36.9142 44.4471 37.0159C44.2904 37.1302 44.1012 37.1919 43.907 37.1921C43.7581 37.1927 43.6114 37.1565 43.48 37.0866L41 35.7782L38.52 37.0866C38.3685 37.1665 38.1975 37.2023 38.0265 37.1899C37.8555 37.1776 37.6914 37.1176 37.553 37.0169L37.5511 37.0159ZM41.4261 33.9205L42.686 34.5845L42.445 33.1779C42.4199 33.0308 42.4309 32.8797 42.4771 32.7377C42.5232 32.5957 42.6032 32.467 42.7101 32.3624L43.73 31.3668L42.3221 31.1617C42.1742 31.1401 42.034 31.083 41.9134 30.9952C41.7928 30.9074 41.6955 30.7917 41.63 30.658L41 29.3776L40.37 30.658C40.3046 30.7917 40.2073 30.9074 40.0867 30.9952C39.9661 31.083 39.8258 31.1401 39.678 31.1617L38.269 31.3668L39.289 32.3624C39.3958 32.4671 39.4755 32.596 39.5215 32.7379C39.5674 32.8799 39.5782 33.0309 39.553 33.1779L39.313 34.5845L40.573 33.9205C40.7047 33.851 40.8515 33.8147 41.0005 33.8147C41.1496 33.8147 41.2963 33.851 41.428 33.9205H41.4261Z" fill="#3DABDD"/>
</svg>
